<?xml version="1.0" encoding="UTF-8" standalone="no"?>
<!-- Created with Inkscape (http://www.inkscape.org/) -->

<svg
   width="167.20418mm"
   height="166.55771mm"
   viewBox="0 0 167.20418 166.55771"
   version="1.1"
   id="svg1"
   inkscape:version="1.3 (1:1.3+202307231459+0e150ed6c4)"
   sodipodi:docname="seldon_logo.svg"
   xml:space="preserve"
   inkscape:export-filename="seldon_logo.png"
   inkscape:export-xdpi="96"
   inkscape:export-ydpi="96"
   xmlns:inkscape="http://www.inkscape.org/namespaces/inkscape"
   xmlns:sodipodi="http://sodipodi.sourceforge.net/DTD/sodipodi-0.dtd"
   xmlns="http://www.w3.org/2000/svg"
   xmlns:svg="http://www.w3.org/2000/svg"><sodipodi:namedview
     id="namedview1"
     pagecolor="#ffffff"
     bordercolor="#000000"
     borderopacity="0.25"
     inkscape:showpageshadow="2"
     inkscape:pageopacity="0.0"
     inkscape:pagecheckerboard="0"
     inkscape:deskcolor="#d1d1d1"
     inkscape:document-units="mm"
     inkscape:zoom="1.3405153"
     inkscape:cx="292.42487"
     inkscape:cy="343.15163"
     inkscape:window-width="1916"
     inkscape:window-height="1156"
     inkscape:window-x="0"
     inkscape:window-y="20"
     inkscape:window-maximized="1"
     inkscape:current-layer="g39"
     inkscape:export-bgcolor="#ffffff00" /><defs
     id="defs1"><linearGradient
       id="swatch3"
       inkscape:swatch="solid"><stop
         style="stop-color:#000000;stop-opacity:1;"
         offset="0"
         id="stop3" /></linearGradient></defs><g
     inkscape:label="Layer 1"
     inkscape:groupmode="layer"
     id="layer1"
     transform="translate(-41.919846,-38.983266)"
     style="display:inline"><path
       id="path1"
       style="display:none;fill:#ffffff;fill-opacity:1;stroke:#dddddd;stroke-width:5.82256;stroke-dasharray:none;stroke-opacity:1;paint-order:stroke markers fill"
       d="m 105.6324,61.108698 a 21.166941,42.04353 0 0 0 -14.021365,10.666309 43.766864,20.333484 41.628406 0 0 -18.051353,1.648035 43.766864,20.333484 41.628406 0 0 -1.777633,16.732374 45.357731,19.620312 0 0 0 -11.507425,12.996844 45.357731,19.620312 0 0 0 11.507425,12.99685 20.333484,43.766864 48.371594 0 0 1.777633,16.73238 20.333484,43.766864 48.371594 0 0 18.051353,1.64774 21.166941,42.04353 0 0 0 14.021365,10.6666 21.166941,42.04353 0 0 0 14.02136,-10.6666 43.766864,20.333484 41.628406 0 0 18.05135,-1.64774 43.766864,20.333484 41.628406 0 0 1.82639,-16.75613 45.357731,19.620312 0 0 0 11.45867,-12.9731 A 45.357731,19.620312 0 0 0 139.54744,90.130503 20.333484,43.766864 48.371594 0 0 137.70511,73.423042 20.333484,43.766864 48.371594 0 0 119.70627,71.760233 21.166941,42.04353 0 0 0 105.6324,61.108698 Z"
       transform="matrix(1.6535219,0,0,1.7838656,-48.847207,-62.257447)" /></g><g
     inkscape:groupmode="layer"
     id="g39"
     inkscape:label="Electrons copy"
     transform="translate(-41.919846,-38.983266)"><path
       id="circle32"
       style="display:inline;fill:#ffffff;fill-opacity:1;stroke:#e9e9e9;stroke-width:7;stroke-dasharray:none;stroke-opacity:1;paint-order:stroke fill markers"
       d="m 125.81828,42.483267 a 5,5 0 0 0 -4.9997,5.000211 5,5 0 0 0 0.007,0.09147 35,75.000006 0 0 0 -18.19165,18.204573 75.000002,35 45 0 0 -25.293035,-0.187585 5,5 0 0 0 -3.72432,-1.665532 5,5 0 0 0 -5.000212,5.000212 5,5 0 0 0 1.406116,3.45922 75.000002,35 45 0 0 -0.176217,26.181865 75.000001,34.999999 0 0 0 -18.261417,18.323429 5,5 0 0 0 -1.165304,-0.13901 5,5 0 0 0 -4.999695,5.00021 5,5 0 0 0 4.999695,4.99969 5,5 0 0 0 1.161169,-0.14882 75.000001,34.999999 0 0 0 18.265552,18.33376 35,75.000002 45 0 0 -1.22008,22.72678 5,5 0 0 0 -2.845305,4.50567 5,5 0 0 0 5.000212,4.99969 5,5 0 0 0 3.391524,-1.33842 35,75.000002 45 0 0 28.461317,1.89394 35,75.000006 0 0 0 18.31154,18.25574 5,5 0 0 0 -0.12661,1.0604 5,5 0 0 0 4.9997,5.00021 5,5 0 0 0 5.00021,-5.00021 5,5 0 0 0 -0.11627,-1.06454 35,75.000006 0 0 0 18.30069,-18.2516 75.000002,35 45 0 0 29.8483,-2.93935 75.000002,35 45 0 0 1.87793,-2.25671 5,5 0 0 0 3.45198,1.39888 5,5 0 0 0 5.00021,-4.99969 5,5 0 0 0 -5.00021,-5.00022 5,5 0 0 0 -0.19275,0.014 75.000002,35 45 0 0 -2.11718,-19.0469 75.000001,34.999999 0 0 0 18.13997,-18.18597 5,5 0 0 0 0.61289,0.0434 5,5 0 0 0 4.99969,-4.99969 5,5 0 0 0 -4.99969,-5.00021 5,5 0 0 0 -0.5762,0.0413 75.000001,34.999999 0 0 0 -18.15031,-18.270201 35,75.000002 45 0 0 -0.6382,-26.714132 5,5 0 0 0 1.82056,-3.850411 5,5 0 0 0 -4.9997,-4.999694 5,5 0 0 0 -4.28087,2.432926 35,75.000002 45 0 0 -24.70961,0.361218 35,75.000006 0 0 0 -18.27485,-18.218009 5,5 0 0 0 0.004,-0.05168 5,5 0 0 0 -5.00021,-5.000211 z" /></g><g
     inkscape:label="Ellipsis"
     inkscape:groupmode="layer"
     id="g4"
     transform="translate(-41.919846,-38.983266)"
     style="display:inline"><ellipse
       style="fill:none;stroke:#490071;stroke-width:1.74677;stroke-dasharray:none;stroke-opacity:1"
       id="ellipse1"
       cx="105.63243"
       cy="103.15221"
       rx="45.357731"
       ry="19.620312"
       transform="matrix(1.6535219,0,0,1.7838656,-48.847207,-62.257447)" /><ellipse
       style="fill:none;stroke:#490071;stroke-width:1.74928;stroke-dasharray:none;stroke-opacity:1"
       id="ellipse2"
       cx="147.88522"
       cy="3.8526728"
       rx="43.732037"
       ry="20.408283"
       transform="matrix(1.212681,1.212681,-1.212681,1.212681,-48.847207,-62.257447)" /><ellipse
       style="fill:none;stroke:#490071;stroke-width:1.74677;stroke-dasharray:none;stroke-opacity:1"
       id="ellipse3"
       cx="103.15221"
       cy="-105.63243"
       rx="42.04353"
       ry="21.166941"
       transform="matrix(0,1.7838656,-1.6535219,0,-48.847207,-62.257447)" /><ellipse
       style="fill:none;stroke:#490071;stroke-width:1.74928;stroke-dasharray:none;stroke-opacity:1"
       id="ellipse4"
       cx="3.8526711"
       cy="-147.88522"
       rx="43.732037"
       ry="20.408283"
       transform="matrix(-1.212681,1.212681,-1.212681,-1.212681,-48.847207,-62.257447)" /></g><g
     inkscape:groupmode="layer"
     id="layer3"
     inkscape:label="Brain"
     transform="translate(-41.919846,-38.983266)"
     style="display:inline"><g
       inkscape:groupmode="layer"
       id="layer4"
       inkscape:label="Shadow"><path
         style="display:inline;fill:#e7b8b8;fill-opacity:1;stroke:#d27777;stroke-width:2.24576;stroke-dasharray:none;stroke-opacity:1"
         d="m 109.94407,94.380413 c 0,0 -4.9262,-0.788123 -7.32868,-0.332012 -7.190767,1.365152 -9.114071,9.195079 -9.114071,9.195079 0,0 -4.300916,1.73235 -5.792498,3.4026 -1.328678,1.48781 -2.022578,3.51584 -2.430426,5.46844 -0.430659,2.06191 -0.486086,4.90132 0.04044,6.31909 0.5266,1.41774 1.701304,2.957 1.701304,2.957 0,0 -3.126442,2.6083 -3.888682,4.41529 -0.826308,1.95885 -1.141532,4.33708 -0.486078,6.35957 0.976881,3.01432 3.355718,5.75059 6.146305,7.25155 1.217719,0.65495 4.118601,0.49346 4.118601,0.49346 0.190165,0.11435 -2.245946,1.85927 -0.168983,4.95973 4.095518,6.11368 10.653358,4.65834 10.653358,4.65834 l 2.26839,-1.17477 c 0,0 6.29549,2.50269 9.54366,2.18583 2.25412,-0.2199 5.87705,-3.09786 6.20494,-2.76826 0,0 2.12038,2.59793 3.38348,3.83453 1.4223,1.3925 5.03074,2.61845 7.62648,2.13676 2.30516,-0.42766 5.64095,-4.20123 5.64095,-4.20123 0,0 6.6616,2.08957 9.7148,0.96366 3.16832,-1.16836 6.76669,-6.97855 7.01845,-7.30574 0.1723,-0.41955 4.54978,0.11858 6.49318,-0.87801 2.28621,-1.17231 4.48081,-3.16348 5.29631,-5.59988 0.97172,-2.90303 -1.02242,-9.12703 -1.02242,-9.12703 0,0 3.12771,-4.47829 3.25105,-7.06889 0.1715,-3.60024 -1.40994,-7.83565 -3.56413,-10.2087 -2.1542,-2.37306 -7.64196,-3.52789 -7.64196,-3.52789 0,0 0.83592,-4.93982 -0.16171,-7.078817 -1.14852,-2.462322 -3.50533,-4.654098 -6.12375,-5.379445 -3.0436,-0.843146 -9.14759,1.462025 -9.32116,1.699056 -0.17351,0.570877 -2.48578,-4.200942 -4.51375,-5.359878 -2.52816,-1.444801 -5.74221,-1.941277 -8.6134,-1.456217 -1.99862,0.337628 -5.32998,2.926986 -5.32998,2.926986 0,0 -2.49531,-2.573089 -4.1512,-2.916359 -2.40221,-0.497981 -5.38495,-0.658738 -7.20777,1.488134 -1.82281,2.146865 -2.22207,3.726641 -2.22207,3.726641"
         id="path6"
         sodipodi:nodetypes="cscaascaaacsccassacacaacazcaacaacasc"
         inkscape:label="Brain outline" /><path
         style="display:inline;fill:#de9c9c;fill-opacity:1;stroke:none;stroke-width:1.856;stroke-dasharray:none;stroke-opacity:1"
         d="m 93.580547,140.95814 c 0,0 1.797101,1.46725 2.862511,1.87427 1.277097,0.48789 2.754221,0.19338 4.055222,0.61339 0.9201,0.29704 2.58021,1.32506 2.58021,1.32506 0,0 2.44849,-1.64894 3.86045,-1.90437 1.6739,-0.30282 3.45023,0.0157 5.07755,0.51116 0.89527,0.27259 2.47616,1.32326 2.47616,1.32326 0,0 2.88647,-2.25643 4.54381,-2.99306 1.11531,-0.49572 2.28918,-1.3814 3.55625,-1.76159 1.26778,-0.3804 2.65023,-0.78144 3.9408,-0.48753 1.61909,0.36873 4.19154,2.69213 4.19154,2.69213 0,0 2.64972,-1.98366 4.21879,-2.32335 1.94921,-0.42199 5.96537,0.46018 5.96537,0.46018 0,0 3.17257,-1.81679 4.46918,-3.07807 1.53251,-1.49075 2.04141,-3.93915 3.7826,-5.17979 1.31701,-0.9384 3.09019,-0.95458 4.6374,-1.42495 1.62935,-0.49535 4.89246,-1.47146 4.89246,-1.47146 0,0 1.75438,-2.24428 2.77498,-3.23124 0.95261,-0.92122 2.16587,-1.54876 3.10106,-2.48766 0.95272,-0.9565 1.98732,-1.92947 2.52174,-3.16921 0.31796,-0.7376 0.34077,-2.38543 0.34077,-2.38543 l 0.71563,-1.39718 0.71563,5.69095 -3.06698,5.52056 0.78378,4.15746 -0.40893,6.33842 -2.35135,3.16921 -5.58871,1.73795 -3.68038,0.64748 -2.82843,4.22561 -4.7027,3.0329 -3.68037,0.13631 -3.47591,-1.05641 -1.60165,-0.54524 -1.8061,2.45359 -2.86251,1.73795 -4.15746,0.20447 -4.05523,-1.32903 -2.14688,-2.76028 -1.53349,-2.01057 -3.44183,1.15864 -2.58989,1.60164 -1.49941,-0.0682 -2.89659,-0.44301 -2.38543,-0.81786 -2.48766,-0.7497 -3.10106,0.34078 -2.5902,0.94383 -2.794361,-0.95417 -4.259691,-2.04465 -1.63572,-2.41951 -0.204465,-2.48765 z"
         id="path24"
         inkscape:label="Shadow"
         sodipodi:nodetypes="caacaacsaacacaaacaaaccccccccccccccccccccccccccccccccc" /><path
         style="display:inline;fill:none;fill-opacity:1;stroke:#d27777;stroke-width:2.24576;stroke-dasharray:none;stroke-opacity:1"
         d="m 109.94407,94.380413 c 0,0 -4.9262,-0.788123 -7.32868,-0.332012 -7.190767,1.365152 -9.114071,9.195079 -9.114071,9.195079 0,0 -4.300916,1.73235 -5.792498,3.4026 -1.328678,1.48781 -2.022578,3.51584 -2.430426,5.46844 -0.430659,2.06191 -0.486086,4.90132 0.04044,6.31909 0.5266,1.41774 1.701304,2.957 1.701304,2.957 0,0 -3.126442,2.6083 -3.888682,4.41529 -0.826308,1.95885 -1.141532,4.33708 -0.486078,6.35957 0.976881,3.01432 3.355718,5.75059 6.146305,7.25155 1.217719,0.65495 4.118601,0.49346 4.118601,0.49346 0.190165,0.11435 -2.245946,1.85927 -0.168983,4.95973 4.095518,6.11368 10.653358,4.65834 10.653358,4.65834 l 2.26839,-1.17477 c 0,0 6.29549,2.50269 9.54366,2.18583 2.25412,-0.2199 5.87705,-3.09786 6.20494,-2.76826 0,0 2.12038,2.59793 3.38348,3.83453 1.4223,1.3925 5.03074,2.61845 7.62648,2.13676 2.30516,-0.42766 5.64095,-4.20123 5.64095,-4.20123 0,0 6.6616,2.08957 9.7148,0.96366 3.16832,-1.16836 6.76669,-6.97855 7.01845,-7.30574 0.1723,-0.41955 4.54978,0.11858 6.49318,-0.87801 2.28621,-1.17231 4.48081,-3.16348 5.29631,-5.59988 0.97172,-2.90303 -1.02242,-9.12703 -1.02242,-9.12703 0,0 3.12771,-4.47829 3.25105,-7.06889 0.1715,-3.60024 -1.40994,-7.83565 -3.56413,-10.2087 -2.1542,-2.37306 -7.64196,-3.52789 -7.64196,-3.52789 0,0 0.83592,-4.93982 -0.16171,-7.078817 -1.14852,-2.462322 -3.50533,-4.654098 -6.12375,-5.379445 -3.0436,-0.843146 -9.14759,1.462025 -9.32116,1.699056 -0.17351,0.570877 -2.48578,-4.200942 -4.51375,-5.359878 -2.52816,-1.444801 -5.74221,-1.941277 -8.6134,-1.456217 -1.99862,0.337628 -5.32998,2.926986 -5.32998,2.926986 0,0 -2.49531,-2.573089 -4.1512,-2.916359 -2.40221,-0.497981 -5.38495,-0.658738 -7.20777,1.488134 -1.82281,2.146865 -2.22207,3.726641 -2.22207,3.726641"
         id="path25"
         sodipodi:nodetypes="cscaascaaacsccassacacaacazcaacaacasc"
         inkscape:label="Brain outline" /></g><path
       style="fill:none;fill-opacity:1;stroke:#d27777;stroke-width:2.24607;stroke-dasharray:none;stroke-opacity:1"
       d="m 120.96881,108.56187 c 0,0 -1.53829,2.2237 -1.87645,3.5051 -0.24706,0.93599 -0.071,2.9032 -0.071,2.9032 l 0.21234,1.2746"
       id="path19"
       sodipodi:nodetypes="cscc" /><path
       style="fill:none;fill-opacity:1;stroke:#d27777;stroke-width:2.24607;stroke-dasharray:none;stroke-opacity:1"
       d="m 146.33962,101.42732 0.67272,3.78832 -0.46028,1.73484 -1.94729,3.71752"
       id="path20" /><path
       style="display:inline;fill:none;fill-opacity:1;stroke:#d27777;stroke-width:2.24607;stroke-dasharray:none;stroke-opacity:1"
       d="m 109.77085,94.35011 c 0,0 1.53972,0.768903 2.29952,1.172661 0.6572,0.349218 1.41978,0.562263 1.95369,1.080788 0.97496,0.946958 2.07697,3.508841 2.07697,3.508841 0,0 4.86716,-1.261657 7.32526,-1.053627 1.74709,0.14786 3.47993,0.75086 5.00652,1.613217 1.27462,0.72003 2.34026,1.78952 3.31145,2.88497 0.89858,1.01353 1.8848,2.06693 2.28286,3.36161 0.19686,0.63944 0,2.00693 0,2.00693 l -0.80273,3.96369 1.07866,-4.61594 c 0,0 4.13364,0.1474 6.0961,0.7275 1.4202,0.41984 2.86112,0.99673 3.98873,1.95676 1.31087,1.11602 2.21099,2.67695 2.98534,4.21456 0.70548,1.40085 1.3339,2.9084 1.46564,4.47133 0.0922,1.09333 -0.48725,3.25536 -0.48725,3.25536 l -3.13241,4.14438 3.68433,-5.52417 c 0,0 2.26727,1.09824 3.16091,1.95677 1.05534,1.0139 1.82513,2.31825 2.45849,3.63759 0.29198,0.60821 0.5162,1.26366 0.59967,1.93312 0.20783,1.66955 0.009,3.38034 -0.26593,5.04045 -0.19587,1.19119 -0.25994,2.51653 -0.97838,3.48704 -0.93951,1.2699 -3.98876,2.55888 -3.98876,2.55888 l 3.98876,-2.73452 0.72753,7.04941"
       id="path7"
       sodipodi:nodetypes="caacassscccssaacccaaaaaccc" /><path
       style="fill:none;fill-opacity:1;stroke:#d27777;stroke-width:2.24607;stroke-dasharray:none;stroke-opacity:1"
       d="m 104.03715,102.23259 c 0,0 -1.78836,2.21281 -2.19512,3.54049 -0.34944,1.14057 -0.14165,3.57591 -0.14165,3.57591 l 0.46026,2.37212 -4.60264,0.60188"
       id="path8"
       sodipodi:nodetypes="caccc" /><path
       style="fill:none;fill-opacity:1;stroke:#d27777;stroke-width:2.24607;stroke-dasharray:none;stroke-opacity:1"
       d="m 102.2315,112.14597 c 0,0 2.00946,3.63897 3.63938,4.82118 1.03243,0.74879 2.34583,1.16191 3.61863,1.24283 1.93633,0.1231 3.78023,-0.89846 5.7002,-1.17814 2.05118,-0.29873 4.15216,-0.87759 6.19585,-0.53107 1.84889,0.31356 3.66891,1.13037 5.13373,2.30131 1.1523,0.92112 1.9936,2.22207 2.65536,3.54049 0.76719,1.52859 1.45161,4.92129 1.45161,4.92129 0,0 0.73452,3.1453 0.31849,4.63806 -0.54582,1.95863 -3.50507,4.9921 -3.50507,4.9921"
       id="path9"
       sodipodi:nodetypes="caaaaaacac" /><path
       style="fill:none;fill-opacity:1;stroke:#d27777;stroke-width:2.24607;stroke-dasharray:none;stroke-opacity:1"
       d="m 130.81709,126.96534 c 0,0 2.16607,0.61991 3.25729,0.49566 0.79479,-0.0906 1.53325,-0.49309 2.23053,-0.88512 0.76768,-0.43171 1.52069,-0.93638 2.1088,-1.59201 0.56014,-0.62445 1.28996,-2.1609 1.28996,-2.1609"
       id="path10"
       sodipodi:nodetypes="caaac" /><path
       style="fill:none;fill-opacity:1;stroke:#d27777;stroke-width:2.24607;stroke-dasharray:none;stroke-opacity:1"
       d="m 131.2819,102.57594 1.77025,-5.239931"
       id="path17" /><path
       style="fill:none;fill-opacity:1;stroke:#d27777;stroke-width:2.24607;stroke-dasharray:none;stroke-opacity:1"
       d="m 130.78175,133.97554 c 0,0 1.43388,1.75824 2.30124,2.47834 0.6122,0.50822 1.25607,1.04591 2.01811,1.27457 1.15322,0.3459 3.61131,0.0711 3.61131,0.0711"
       id="path11"
       sodipodi:nodetypes="caac" /><path
       style="fill:none;fill-opacity:1;stroke:#d27777;stroke-width:2.24607;stroke-dasharray:none;stroke-opacity:1"
       d="m 119.24394,127.86081 c 0,0 -2.14562,1.55918 -2.90317,2.61998 -0.71597,1.00255 -1.12645,2.21064 -1.45162,3.39888 -0.31085,1.13661 -0.57445,2.33224 -0.46026,3.50505 0.12159,1.2518 0.60796,2.46832 1.20374,3.57592 0.61298,1.13956 1.41196,2.21065 2.38719,3.06112 0.73609,0.64189 1.63422,1.09121 2.53409,1.47072 1.25325,0.52855 2.57382,0.99363 3.92995,1.09757 0.88885,0.0682 1.8314,0.021 2.6554,-0.31848 1.08018,-0.44608 2.76159,-2.15969 2.76159,-2.15969"
       id="path12"
       sodipodi:nodetypes="caaaaaaaac" /><path
       style="fill:none;fill-opacity:1;stroke:#d27777;stroke-width:2.24607;stroke-dasharray:none;stroke-opacity:1"
       d="m 108.9395,120.18384 -1.66402,2.65538 -1.9119,3.29266 -0.14151,1.13297 4.92132,2.01806"
       id="path13" /><path
       style="fill:none;fill-opacity:1;stroke:#d27777;stroke-width:2.24607;stroke-dasharray:none;stroke-opacity:1"
       d="m 97.008027,128.75182 c 0,0 3.272193,-1.96252 5.108783,-2.1112 1.01136,-0.082 2.96355,0.69492 2.96355,0.69492"
       id="path14"
       sodipodi:nodetypes="cac" /><path
       style="fill:none;fill-opacity:1;stroke:#d27777;stroke-width:2.24607;stroke-dasharray:none;stroke-opacity:1"
       d="m 105.04496,140.50628 2.83237,-3.11564"
       id="path16" /><path
       style="fill:none;fill-opacity:1;stroke:#d27777;stroke-width:2.24607;stroke-dasharray:none;stroke-opacity:1"
       d="m 147.26014,105.53429 4.17778,-0.7081"
       id="path21" /><path
       style="fill:none;fill-opacity:1;stroke:#d27777;stroke-width:2.24607;stroke-dasharray:none;stroke-opacity:1"
       d="m 158.2995,118.80657 2.85964,-1.80559"
       id="path23"
       sodipodi:nodetypes="cc" /><path
       style="fill:none;fill-opacity:1;stroke:#d27777;stroke-width:2.24607;stroke-dasharray:none;stroke-opacity:1"
       d="m 116.15296,100.02009 c -1.53405,0.50073 -2.84611,2.55173 -3.80461,4.17126 -0.5018,0.84791 -0.95596,2.79699 -0.95596,2.79699"
       id="path18"
       sodipodi:nodetypes="cac" /><path
       style="fill:none;fill-opacity:1;stroke:#d27777;stroke-width:2.24607;stroke-dasharray:none;stroke-opacity:1"
       d="m 154.4676,116.82394 c 0,0 2.77492,1.60979 3.85914,2.76156 0.82142,0.87264 1.44712,1.94016 1.91187,3.04481 0.31671,0.75307 0.45548,1.57458 0.57258,2.38317 0.15711,1.08404 0.19406,2.18653 0.17069,3.28163 -0.027,1.2445 -0.35398,3.71755 -0.35398,3.71755"
       id="path22"
       sodipodi:nodetypes="caaaac" /><path
       style="fill:none;fill-opacity:1;stroke:#d27777;stroke-width:2.24607;stroke-dasharray:none;stroke-opacity:1"
       d="m 100.37149,137.1782 c 0,0 0.68419,2.10919 1.52242,2.72618 0.55366,0.40742 2.01809,0.42495 2.01809,0.42495 h 0.81429 v 3.32808 c 0,0 0.13205,1.68269 0.38946,2.47834 0.2554,0.78942 1.12711,2.21931 1.12711,2.21931"
       id="path15"
       sodipodi:nodetypes="cacccac" /></g><g
     inkscape:groupmode="layer"
     id="layer5"
     inkscape:label="Electrons"
     transform="translate(-41.919846,-38.983266)"
     style="display:inline"><circle
       style="fill:#66c4f1;fill-opacity:1;stroke:#3d085a;stroke-width:1.856;stroke-dasharray:none;stroke-opacity:1"
       id="path26"
       cx="125.81833"
       cy="197.04085"
       r="5" /><circle
       style="fill:#66c4f1;fill-opacity:1;stroke:#3d085a;stroke-width:1.856;stroke-dasharray:none;stroke-opacity:1"
       id="path26-7"
       cx="125.81833"
       cy="47.483429"
       r="5" /><circle
       style="fill:#66c4f1;fill-opacity:1;stroke:#3d085a;stroke-width:1.856;stroke-dasharray:none;stroke-opacity:1"
       id="path26-7-2"
       cx="73.616043"
       cy="68.926468"
       r="5" /><circle
       style="fill:#66c4f1;fill-opacity:1;stroke:#3d085a;stroke-width:1.856;stroke-dasharray:none;stroke-opacity:1"
       id="path26-7-2-9-4"
       cx="200.62398"
       cy="121.75223"
       r="5"
       inkscape:label="path26-7-2-9-4" /><circle
       style="fill:#66c4f1;fill-opacity:1;stroke:#3d085a;stroke-width:1.856;stroke-dasharray:none;stroke-opacity:1"
       id="path26-7-2-9-4-7"
       cx="70.780731"
       cy="172.16931"
       r="5" /><circle
       style="fill:#66c4f1;fill-opacity:1;stroke:#3d085a;stroke-width:1.856;stroke-dasharray:none;stroke-opacity:1"
       id="path26-7-2-9-4-6"
       cx="184.18137"
       cy="168.92752"
       r="5" /><circle
       style="fill:#66c4f1;fill-opacity:1;stroke:#3d085a;stroke-width:1.856;stroke-dasharray:none;stroke-opacity:1"
       id="path26-7-2-9-4-6-3"
       cx="178.08008"
       cy="67.958847"
       r="5" /><circle
       style="fill:#66c4f1;fill-opacity:1;stroke:#3d085a;stroke-width:1.856;stroke-dasharray:none;stroke-opacity:1"
       id="path26-7-2-9-4-6-3-1"
       cx="50.419418"
       cy="121.75223"
       r="5" /></g></svg>
