<?xml version="1.0" encoding="UTF-8" standalone="no"?>
<!-- Created with Inkscape (http://www.inkscape.org/) -->

<svg
   width="498.12268mm"
   height="168.12151mm"
   viewBox="0 0 498.12269 168.12151"
   version="1.1"
   id="svg1"
   inkscape:version="1.3 (1:1.3+202307231459+0e150ed6c4)"
   sodipodi:docname="logo.svg"
   xml:space="preserve"
   inkscape:export-filename="logo.png"
   inkscape:export-xdpi="300"
   inkscape:export-ydpi="300"
   xmlns:inkscape="http://www.inkscape.org/namespaces/inkscape"
   xmlns:sodipodi="http://sodipodi.sourceforge.net/DTD/sodipodi-0.dtd"
   xmlns="http://www.w3.org/2000/svg"
   xmlns:svg="http://www.w3.org/2000/svg"><sodipodi:namedview
     id="namedview1"
     pagecolor="#ffffff"
     bordercolor="#000000"
     borderopacity="0.25"
     inkscape:showpageshadow="2"
     inkscape:pageopacity="0.0"
     inkscape:pagecheckerboard="0"
     inkscape:deskcolor="#d1d1d1"
     inkscape:document-units="mm"
     inkscape:zoom="0.81326349"
     inkscape:cx="551.48178"
     inkscape:cy="566.85195"
     inkscape:window-width="1920"
     inkscape:window-height="1200"
     inkscape:window-x="0"
     inkscape:window-y="0"
     inkscape:window-maximized="1"
     inkscape:current-layer="layer7"
     inkscape:export-bgcolor="#ffffff00" /><defs
     id="defs1"><linearGradient
       id="swatch3"
       inkscape:swatch="solid"><stop
         style="stop-color:#000000;stop-opacity:1;"
         offset="0"
         id="stop3" /></linearGradient></defs><g
     inkscape:groupmode="layer"
     id="layer2"
     inkscape:label="Text"
     style="display:inline"
     transform="translate(11.182969,0.78203486)"><text
       xml:space="preserve"
       style="font-style:normal;font-variant:normal;font-weight:normal;font-stretch:normal;font-size:3.175px;font-family:FoundationTitlesHand;-inkscape-font-specification:'FoundationTitlesHand, Normal';font-variant-ligatures:normal;font-variant-caps:normal;font-variant-numeric:normal;font-variant-east-asian:normal;display:inline;fill:#e9e9e9;fill-opacity:1;stroke:#490071;stroke-width:6;stroke-dasharray:none;stroke-opacity:1;paint-order:stroke fill markers"
       x="205.80246"
       y="154.32103"
       id="text7"
       transform="translate(-41.919845,-38.983266)"><tspan
         sodipodi:role="line"
         id="tspan7"
         style="font-style:normal;font-variant:normal;font-weight:normal;font-stretch:normal;font-size:88.1944px;font-family:FoundationTitlesHand;-inkscape-font-specification:'FoundationTitlesHand, Normal';font-variant-ligatures:normal;font-variant-caps:normal;font-variant-numeric:normal;font-variant-east-asian:normal;fill:#e9e9e9;fill-opacity:1;stroke:#490071;stroke-width:6;stroke-dasharray:none;stroke-opacity:1"
         x="205.80246"
         y="154.32103">Seldon</tspan></text></g><g
     inkscape:groupmode="layer"
     id="layer6"
     inkscape:label="Atom"
     transform="translate(-21.132703,1.3604998)"><g
       inkscape:groupmode="layer"
       id="layer7"
       inkscape:label="Outline"
       style="display:inline"><path
         id="ellipse11"
         style="display:inline;fill:#fefefe;fill-opacity:1;stroke:#e9e9e9;stroke-width:8;stroke-dasharray:none;stroke-opacity:1;paint-order:stroke fill markers"
         d="m 105.1893,2.6395708 a 5.060729,5.060729 0 0 0 -5.06119,5.0611898 5.060729,5.060729 0 0 0 0.0739,0.8216553 35,75 0 0 0 -18.193208,18.2056071 75,35 45 0 0 -25.741064,-0.0078 5.060729,5.060729 0 0 0 -0.53175,-0.628386 5.060729,5.060729 0 0 0 -7.157186,0 5.060729,5.060729 0 0 0 0,7.157186 5.060729,5.060729 0 0 0 0.633036,0.529167 75,35 45 0 0 0.0088,25.737964 75,35 0 0 0 -18.206641,18.195788 5.060729,5.060729 0 0 0 -0.820621,-0.06821 5.060729,5.060729 0 0 0 -5.060673,5.060673 5.060729,5.060729 0 0 0 5.060673,5.06119 5.060729,5.060729 0 0 0 0.821655,-0.0739 75,35 0 0 0 18.205607,18.193205 35,75 45 0 0 -0.399459,24.76645 5.06073,5.0607285 45 0 0 -0.986503,0.75654 5.06073,5.0607285 45 0 0 0,7.15667 5.06073,5.0607285 45 0 0 7.156669,0 5.06073,5.0607285 45 0 0 0.37207,-0.41703 35,75 45 0 0 26.645402,0.52555 35,75 0 0 0 17.229957,17.79529 5.06073,5.0607285 0 0 0 -0.162781,1.23197 5.06073,5.0607285 0 0 0 5.060667,5.06067 5.06073,5.0607285 0 0 0 5.06067,-5.06067 5.06073,5.0607285 0 0 0 -0.032,-0.55759 35,75 0 0 0 19.21226,-18.46967 75,35 45 0 0 24.76696,0.39946 5.0607285,5.06073 45 0 0 0.75603,0.9865 5.0607285,5.06073 45 0 0 7.15719,0 5.0607285,5.06073 45 0 0 0,-7.15667 5.0607285,5.06073 45 0 0 -0.37982,-0.32918 75,35 45 0 0 0.56793,-26.73067 75,35 0 0 0 17.71519,-17.187577 5.0607285,5.06073 0 0 0 1.23196,0.162781 5.0607285,5.06073 0 0 0 5.0612,-5.060673 5.0607285,5.06073 0 0 0 -5.0612,-5.060673 5.0607285,5.06073 0 0 0 -0.50074,0.03617 75,35 0 0 0 -18.42007,-19.26084 35,75 45 0 0 -0.0687,-25.722461 5.060729,5.060729 0 0 0 0.59841,-0.506429 5.060729,5.060729 0 0 0 0,-7.156669 5.060729,5.060729 0 0 0 -7.15718,0 5.060729,5.060729 0 0 0 -0.52917,0.633036 35,75 45 0 0 -25.65063,-0.01757 35,75 0 0 0 -18.28002,-18.2200765 5.060729,5.060729 0 0 0 0.0651,-0.7808309 5.060729,5.060729 0 0 0 -5.06067,-5.0611898 z"
         inkscape:label="ellipse11"
         inkscape:export-filename="logo.png"
         inkscape:export-xdpi="300"
         inkscape:export-ydpi="300" /></g><ellipse
       style="display:inline;fill:#000000;fill-opacity:0;stroke:#490071;stroke-width:3;stroke-dasharray:none;stroke-opacity:1"
       id="ellipse1-5"
       cx="105.19321"
       cy="82.700531"
       rx="75"
       ry="35" /><ellipse
       style="display:inline;fill:#66c4f1;fill-opacity:1;stroke:#3d085a;stroke-width:1.87854;stroke-dasharray:none;stroke-opacity:1"
       id="path26-7-2-9-4-6-3-1-2"
       cx="180.19321"
       cy="83.757225"
       rx="5.0607285"
       ry="5.06073" /><circle
       style="display:inline;fill:#66c4f1;fill-opacity:1;stroke:#3d085a;stroke-width:1.87854;stroke-dasharray:none;stroke-opacity:1"
       id="path26-7-2-9-4-6-3-1-2-7"
       cx="30.193209"
       cy="82.704674"
       r="5.060729" /><ellipse
       style="display:inline;fill:#000000;fill-opacity:0;stroke:#490071;stroke-width:3;stroke-dasharray:none;stroke-opacity:1"
       id="ellipse5"
       cx="132.86093"
       cy="-15.904725"
       rx="75"
       ry="35"
       transform="rotate(45)" /><ellipse
       style="display:inline;fill:#66c4f1;fill-opacity:1;stroke:#3d085a;stroke-width:1.87854;stroke-dasharray:none;stroke-opacity:1"
       id="ellipse6"
       cx="207.86093"
       cy="-14.84803"
       rx="5.0607285"
       ry="5.06073"
       transform="rotate(45)" /><circle
       style="display:inline;fill:#66c4f1;fill-opacity:1;stroke:#3d085a;stroke-width:1.87854;stroke-dasharray:none;stroke-opacity:1"
       id="circle6"
       cx="57.860939"
       cy="-15.900582"
       r="5.060729"
       transform="rotate(45)" /><ellipse
       style="display:inline;fill:#000000;fill-opacity:0;stroke:#490071;stroke-width:3;stroke-dasharray:none;stroke-opacity:1"
       id="ellipse7"
       cx="82.700523"
       cy="-105.19321"
       rx="75"
       ry="35"
       transform="rotate(90)" /><ellipse
       style="display:inline;fill:#66c4f1;fill-opacity:1;stroke:#3d085a;stroke-width:1.87854;stroke-dasharray:none;stroke-opacity:1"
       id="ellipse8"
       cx="157.70053"
       cy="-104.13651"
       rx="5.0607285"
       ry="5.06073"
       transform="rotate(90)" /><circle
       style="display:inline;fill:#66c4f1;fill-opacity:1;stroke:#3d085a;stroke-width:1.87854;stroke-dasharray:none;stroke-opacity:1"
       id="circle8"
       cx="7.7005353"
       cy="-105.18906"
       r="5.060729"
       transform="rotate(90)" /><ellipse
       style="display:inline;fill:#000000;fill-opacity:0;stroke:#490071;stroke-width:3;stroke-dasharray:none;stroke-opacity:1"
       id="ellipse9"
       cx="-15.904733"
       cy="-132.86093"
       rx="75"
       ry="35"
       transform="rotate(135)" /><ellipse
       style="display:inline;fill:#66c4f1;fill-opacity:1;stroke:#3d085a;stroke-width:1.87854;stroke-dasharray:none;stroke-opacity:1"
       id="ellipse10"
       cx="59.095276"
       cy="-131.80423"
       rx="5.0607285"
       ry="5.06073"
       transform="rotate(135)" /><circle
       style="display:inline;fill:#66c4f1;fill-opacity:1;stroke:#3d085a;stroke-width:1.87854;stroke-dasharray:none;stroke-opacity:1"
       id="circle10"
       cx="-90.904724"
       cy="-132.8568"
       r="5.060729"
       transform="rotate(135)" /></g><g
     inkscape:groupmode="layer"
     id="layer3"
     inkscape:label="Brain"
     transform="translate(-42.57919,-36.417896)"
     style="display:inline"><g
       inkscape:groupmode="layer"
       id="g43"
       inkscape:label="Shadow copy"
       style="display:inline"><path
         style="display:inline;fill:#e2aaaa;fill-opacity:1;stroke:#e6b1b1;stroke-width:5;stroke-dasharray:none;stroke-opacity:1"
         d="m 109.94407,94.380413 c 0,0 -4.9262,-0.788123 -7.32868,-0.332012 -7.190767,1.365152 -9.114071,9.195079 -9.114071,9.195079 0,0 -4.109849,1.92669 -5.586712,3.57097 -1.318499,1.46797 -2.191026,3.37778 -2.636212,5.30007 -0.475248,2.05209 -0.509718,4.2858 0.04044,6.31909 0.297008,1.09769 1.701304,2.957 1.701304,2.957 0,0 -3.126442,2.6083 -3.888682,4.41529 -0.826308,1.95885 -1.141532,4.33708 -0.486078,6.35957 0.976881,3.01432 3.496826,5.5136 6.146305,7.25155 1.106582,0.72587 3.800567,1.14823 3.800567,1.14823 0,0 -0.648833,3.11121 0.149051,4.30496 2.0081,3.0044 6.259257,4.29365 9.867628,4.48997 1.0703,0.0582 3.05412,-1.0064 3.05412,-1.0064 0,0 6.28009,2.19724 9.54366,2.18583 1.97793,-0.007 5.77466,-1.36517 5.77466,-1.36517 0,0 2.4239,1.84727 3.81376,2.43144 2.39414,1.00628 5.03513,2.23372 7.58906,1.7626 2.24468,-0.41407 5.67837,-3.82707 5.67837,-3.82707 0,0 6.6616,2.08957 9.7148,0.96366 3.16832,-1.16836 6.76669,-6.97855 7.01845,-7.30574 0.1723,-0.41955 4.54978,0.11858 6.49318,-0.87801 2.28621,-1.17231 4.48081,-3.16348 5.29631,-5.59988 0.97172,-2.90303 -1.02242,-9.12703 -1.02242,-9.12703 0,0 3.12769,-4.47828 3.25105,-7.06889 0.17144,-3.60025 -1.14151,-7.53998 -3.56413,-10.2087 -1.8858,-2.07737 -7.64196,-3.52789 -7.64196,-3.52789 0,0 0.83592,-4.93982 -0.16171,-7.078817 -1.14852,-2.462322 -3.49755,-4.682913 -6.12375,-5.379445 -3.11495,-0.826159 -9.47082,1.942258 -9.47082,1.942258 0,0 -2.33148,-4.389435 -4.36409,-5.60308 -2.50012,-1.492792 -5.74221,-1.941277 -8.6134,-1.456217 -1.99862,0.337628 -5.32998,2.926986 -5.32998,2.926986 0,0 -2.49531,-2.573089 -4.1512,-2.916359 -2.40221,-0.497981 -5.38495,-0.658738 -7.20777,1.488134 -1.82281,2.146865 -2.22207,3.726641 -2.22207,3.726641"
         id="path41"
         sodipodi:nodetypes="cscaaacaaacaacacaacacaacaacaacaacasc"
         inkscape:label="Brain outline" /></g><g
       inkscape:groupmode="layer"
       id="layer4"
       inkscape:label="Shadow"
       style="display:inline"><path
         style="display:inline;fill:#e7b8b8;fill-opacity:1;stroke:#dd7979;stroke-width:2.24576;stroke-dasharray:none;stroke-opacity:1"
         d="m 109.94407,94.380413 c 0,0 -4.9262,-0.788123 -7.32868,-0.332012 -7.190767,1.365152 -9.114071,9.195079 -9.114071,9.195079 0,0 -4.109849,1.92669 -5.586712,3.57097 -1.318499,1.46797 -2.191026,3.37778 -2.636212,5.30007 -0.475248,2.05209 -0.509718,4.2858 0.04044,6.31909 0.297008,1.09769 1.701304,2.957 1.701304,2.957 0,0 -3.126442,2.6083 -3.888682,4.41529 -0.826308,1.95885 -1.141532,4.33708 -0.486078,6.35957 0.976881,3.01432 3.496826,5.5136 6.146305,7.25155 1.106582,0.72587 3.800567,1.14823 3.800567,1.14823 0,0 -0.648833,3.11121 0.149051,4.30496 2.0081,3.0044 6.259257,4.29365 9.867628,4.48997 1.0703,0.0582 3.05412,-1.0064 3.05412,-1.0064 0,0 6.28009,2.19724 9.54366,2.18583 1.97793,-0.007 5.77466,-1.36517 5.77466,-1.36517 0,0 2.4239,1.84727 3.81376,2.43144 2.39414,1.00628 5.03513,2.23372 7.58906,1.7626 2.24468,-0.41407 5.67837,-3.82707 5.67837,-3.82707 0,0 6.6616,2.08957 9.7148,0.96366 3.16832,-1.16836 6.76669,-6.97855 7.01845,-7.30574 0.1723,-0.41955 4.54978,0.11858 6.49318,-0.87801 2.28621,-1.17231 4.48081,-3.16348 5.29631,-5.59988 0.97172,-2.90303 -1.02242,-9.12703 -1.02242,-9.12703 0,0 3.12769,-4.47828 3.25105,-7.06889 0.17144,-3.60025 -1.14151,-7.53998 -3.56413,-10.2087 -1.8858,-2.07737 -7.64196,-3.52789 -7.64196,-3.52789 0,0 0.83592,-4.93982 -0.16171,-7.078817 -1.14852,-2.462322 -3.49755,-4.682913 -6.12375,-5.379445 -3.11495,-0.826159 -9.47082,1.942258 -9.47082,1.942258 0,0 -2.33148,-4.389435 -4.36409,-5.60308 -2.50012,-1.492792 -5.74221,-1.941277 -8.6134,-1.456217 -1.99862,0.337628 -5.32998,2.926986 -5.32998,2.926986 0,0 -2.49531,-2.573089 -4.1512,-2.916359 -2.40221,-0.497981 -5.38495,-0.658738 -7.20777,1.488134 -1.82281,2.146865 -2.22207,3.726641 -2.22207,3.726641"
         id="path25"
         sodipodi:nodetypes="cscaaacaaacaacacaacacaacaacaacaacasc"
         inkscape:label="Brain outline" /><path
         style="display:inline;fill:#de9c9c;fill-opacity:1;stroke:none;stroke-width:1.856;stroke-dasharray:none;stroke-opacity:1"
         d="m 93.617963,139.81696 c 0,0 1.605969,2.37447 2.825095,3.01545 1.210059,0.63621 2.754221,0.19338 4.055222,0.61339 0.9201,0.29704 2.58021,1.32506 2.58021,1.32506 0,0 2.44849,-1.64894 3.86045,-1.90437 1.6739,-0.30282 3.45023,0.0157 5.07755,0.51116 0.89527,0.27259 2.47616,1.32326 2.47616,1.32326 0,0 2.97095,-2.09 4.54381,-2.99306 1.14723,-0.65869 2.28918,-1.3814 3.55625,-1.76159 1.26777,-0.3804 2.65023,-0.78144 3.9408,-0.48753 1.61909,0.36873 4.19154,2.69213 4.19154,2.69213 0,0 2.64972,-1.98366 4.21879,-2.32335 1.94921,-0.42199 5.96537,0.46018 5.96537,0.46018 0,0 3.17257,-1.81679 4.46918,-3.07807 1.53251,-1.49075 2.04141,-3.93915 3.7826,-5.17979 1.31701,-0.9384 3.09019,-0.95458 4.6374,-1.42495 1.62935,-0.49535 4.89246,-1.47146 4.89246,-1.47146 0,0 1.75438,-2.24428 2.77498,-3.23124 0.95261,-0.92122 2.16587,-1.54876 3.10106,-2.48766 0.95272,-0.9565 1.98732,-1.92947 2.52174,-3.16921 0.31796,-0.7376 0.34077,-2.38543 0.34077,-2.38543 l 0.71563,-1.39718 -0.33269,5.81879 -2.50446,5.36715 1.0251,4.68878 -0.95708,5.55141 -2.35135,2.73455 -4.92392,1.81465 -3.55254,1.2867 -3.46765,3.86765 -3.98677,2.54709 -3.47582,0.28973 -3.37364,-0.59618 -1.98518,-0.31512 -2.34304,1.91665 -2.60683,1.6101 -3.74836,0.33232 -3.69726,-1.27789 -2.63269,-2.27448 -1.72057,-1.20613 -3.21733,0.91544 -2.45894,0.34821 -1.79874,0.0253 -2.82175,-0.12498 -2.3106,-0.6869 -2.78699,-0.82453 -2.82044,0.56527 -2.62761,0.10198 -2.700828,-0.71097 -3.754578,-2.04465 -1.429934,-1.9144 0.132275,-1.77675 z"
         id="path24"
         inkscape:label="Shadow"
         sodipodi:nodetypes="caacaacaaacacaaacaaaccccccccccccccccccccccccccccccccc" /><path
         style="display:inline;fill:none;fill-opacity:1;stroke:#d27777;stroke-width:2.24576;stroke-dasharray:none;stroke-opacity:1"
         d="m 109.94407,94.380413 c 0,0 -4.9262,-0.788123 -7.32868,-0.332012 -7.190767,1.365152 -9.114071,9.195079 -9.114071,9.195079 0,0 -4.109849,1.92669 -5.586712,3.57097 -1.318499,1.46797 -2.191026,3.37778 -2.636212,5.30007 -0.475248,2.05209 -0.509718,4.2858 0.04044,6.31909 0.297008,1.09769 1.701304,2.957 1.701304,2.957 0,0 -3.126442,2.6083 -3.888682,4.41529 -0.826308,1.95885 -1.141532,4.33708 -0.486078,6.35957 0.976881,3.01432 3.496826,5.5136 6.146305,7.25155 1.106582,0.72587 3.800567,1.14823 3.800567,1.14823 0,0 -0.648833,3.11121 0.149051,4.30496 2.0081,3.0044 6.259257,4.29365 9.867628,4.48997 1.0703,0.0582 3.05412,-1.0064 3.05412,-1.0064 0,0 6.28009,2.19724 9.54366,2.18583 1.97793,-0.007 5.77466,-1.36517 5.77466,-1.36517 0,0 2.4239,1.84727 3.81376,2.43144 2.39414,1.00628 5.03513,2.23372 7.58906,1.7626 2.24468,-0.41407 5.67837,-3.82707 5.67837,-3.82707 0,0 6.6616,2.08957 9.7148,0.96366 3.16832,-1.16836 6.76669,-6.97855 7.01845,-7.30574 0.1723,-0.41955 4.54978,0.11858 6.49318,-0.87801 2.28621,-1.17231 4.48081,-3.16348 5.29631,-5.59988 0.97172,-2.90303 -1.02242,-9.12703 -1.02242,-9.12703 0,0 3.12769,-4.47828 3.25105,-7.06889 0.17144,-3.60025 -1.14151,-7.53998 -3.56413,-10.2087 -1.8858,-2.07737 -7.64196,-3.52789 -7.64196,-3.52789 0,0 0.83592,-4.93982 -0.16171,-7.078817 -1.14852,-2.462322 -3.49755,-4.682913 -6.12375,-5.379445 -3.11495,-0.826159 -9.47082,1.942258 -9.47082,1.942258 0,0 -2.33148,-4.389435 -4.36409,-5.60308 -2.50012,-1.492792 -5.74221,-1.941277 -8.6134,-1.456217 -1.99862,0.337628 -5.32998,2.926986 -5.32998,2.926986 0,0 -2.49531,-2.573089 -4.1512,-2.916359 -2.40221,-0.497981 -5.38495,-0.658738 -7.20777,1.488134 -1.82281,2.146865 -2.22207,3.726641 -2.22207,3.726641"
         id="path58"
         sodipodi:nodetypes="cscaaacaaacaacacaacacaacaacaacaacasc"
         inkscape:label="Brain outline" /></g><path
       id="path11"
       style="fill:none;fill-opacity:1;stroke:#d27777;stroke-width:2.24607;stroke-dasharray:none;stroke-opacity:1"
       d="m 130.78175,133.97554 c 0,0 1.43388,1.75824 2.30124,2.47834 0.6122,0.50822 1.25607,1.04591 2.01811,1.27457 1.15322,0.3459 3.61131,0.0711 3.61131,0.0711 m -7.89532,-10.83421 c 0,0 2.16607,0.61991 3.25729,0.49566 0.79479,-0.0906 1.53325,-0.49309 2.23053,-0.88512 0.76768,-0.43171 1.52069,-0.93638 2.1088,-1.59201 0.56014,-0.62445 1.28996,-2.1609 1.28996,-2.1609 m -37.47217,-10.677 c 0,0 2.00946,3.63897 3.63938,4.82118 1.03243,0.74879 2.34583,1.16191 3.61863,1.24283 1.93633,0.1231 3.78023,-0.89846 5.7002,-1.17814 2.05118,-0.29873 4.15216,-0.87759 6.19585,-0.53107 1.84889,0.31356 3.66891,1.13037 5.13373,2.30131 1.1523,0.92112 1.9936,2.22207 2.65536,3.54049 0.76719,1.52859 1.45161,4.92129 1.45161,4.92129 0,0 0.73452,3.1453 0.31849,4.63806 -0.54582,1.95863 -3.50507,4.9921 -3.50507,4.9921 m -23.40253,-34.66143 c 0,0 -1.78836,2.21281 -2.19512,3.54049 -0.34944,1.14057 -0.23226,2.38645 -0.14165,3.57591 0.0612,0.80313 0.46026,2.37212 0.46026,2.37212 l -8.696854,1.91788 m 27.505024,-5.07712 c 0,0 -1.53829,2.2237 -1.87645,3.5051 -0.24706,0.93599 -0.071,2.9032 -0.071,2.9032 l 0.21234,1.2746"
       sodipodi:nodetypes="cccccccscccsccscccccsacccccc" /><path
       style="fill:none;fill-opacity:1;stroke:#d27777;stroke-width:2.24607;stroke-dasharray:none;stroke-opacity:1"
       d="m 119.24394,127.86081 c 0,0 -2.14562,1.55918 -2.90317,2.61998 -0.71597,1.00255 -1.12645,2.21064 -1.45162,3.39888 -0.31085,1.13661 -0.57445,2.33224 -0.46026,3.50505 0.12159,1.2518 0.60796,2.46832 1.20374,3.57592 0.61298,1.13956 1.41196,2.21065 2.38719,3.06112 0.73609,0.64189 1.63422,1.09121 2.53409,1.47072 1.25325,0.52855 2.57382,0.99363 3.92995,1.09757 0.88885,0.0682 1.8314,0.021 2.6554,-0.31848 1.08018,-0.44608 2.76159,-2.15969 2.76159,-2.15969"
       id="path12"
       sodipodi:nodetypes="caaaaaaaac" /><path
       id="path14"
       style="fill:none;fill-opacity:1;stroke:#d27777;stroke-width:2.24607;stroke-dasharray:none;stroke-opacity:1"
       d="m 91.291281,129.26224 c 0,0 3.273943,-1.94216 5.108783,-2.1112 1.05616,-0.0973 3.11321,0.6575 3.11321,0.6575 m 3.709476,-7.11428 -1.66402,2.65538 -1.911896,3.29266 -0.14151,1.13297 4.921316,2.01806" /><path
       id="path18"
       style="fill:none;fill-opacity:1;stroke:#d27777;stroke-width:2.24607;stroke-dasharray:none;stroke-opacity:1"
       d="m 116.15296,100.02009 c -1.53405,0.50073 -2.84611,2.55173 -3.80461,4.17126 -0.5018,0.84791 -0.95596,2.79699 -0.95596,2.79699 m 35.86775,-1.45405 4.17778,-0.7081 m -20.15602,-2.25025 1.77025,-5.239931 m -23.2813,-2.985899 c 0,0 1.57479,0.70888 2.29952,1.172661 0.61791,0.395423 1.22295,0.830471 1.72919,1.361406 0.91197,0.956446 2.30147,3.228223 2.30147,3.228223 0,0 4.86716,-1.261657 7.32526,-1.053627 1.74709,0.14786 3.47993,0.75086 5.00652,1.613217 1.27462,0.72003 2.34026,1.78952 3.31145,2.88497 0.89858,1.01353 1.8848,2.06693 2.28286,3.36161 0.19686,0.63944 0,2.00693 0,2.00693 l -0.80273,3.96369 1.07866,-4.61594 c 0,0 4.13364,0.1474 6.0961,0.7275 1.4202,0.41984 2.86112,0.99673 3.98873,1.95676 1.31087,1.11602 2.21099,2.67695 2.98534,4.21456 0.70548,1.40085 1.3339,2.9084 1.46564,4.47133 0.0922,1.09333 -0.48725,3.25536 -0.48725,3.25536 l -3.13241,4.14438 3.68433,-5.52417 c 0,0 2.26727,1.09824 3.16091,1.95677 1.05534,1.0139 1.82513,2.31825 2.45849,3.63759 0.29198,0.60821 0.5162,1.26366 0.59967,1.93312 0.20783,1.66955 0.009,3.38034 -0.26593,5.04045 -0.19587,1.19119 -0.25994,2.51653 -0.97838,3.48704 -0.93951,1.2699 -3.98876,2.55888 -3.98876,2.55888 l 3.98876,-2.73452 0.72753,7.04941 m -8.2662,-43.02039 0.67272,3.78832 -0.46028,1.73484 -1.94729,3.71752" /><path
       id="path22"
       style="fill:none;fill-opacity:1;stroke:#d27777;stroke-width:2.24607;stroke-dasharray:none;stroke-opacity:1"
       d="m 154.4676,116.82394 c 0,0 2.77492,1.60979 3.85914,2.76156 0.82142,0.87264 1.44712,1.94016 1.91187,3.04481 0.31671,0.75307 0.45548,1.57458 0.57258,2.38317 0.15711,1.08404 0.19406,2.18653 0.17069,3.28163 -0.027,1.2445 -0.35398,3.71755 -0.35398,3.71755 m -2.3284,-13.20609 2.85964,-1.80559"
       sodipodi:nodetypes="cccccccc" /><path
       id="path15"
       style="fill:none;fill-opacity:1;stroke:#d27777;stroke-width:2.24607;stroke-dasharray:none;stroke-opacity:1"
       d="m 100.37149,137.1782 c 0,0 0.68419,2.10919 1.52242,2.72618 0.55366,0.40742 2.01809,0.42495 2.01809,0.42495 h 0.81429 c 0,0 -0.0864,2.22209 0,3.32808 0.0651,0.83371 0.13205,1.68269 0.38946,2.47834 0.2554,0.78942 1.12711,2.21931 1.12711,2.21931 m -1.1979,-7.84878 2.83237,-3.11564" /></g></svg>
